G75*
%MOIN*%
%OFA0B0*%
%FSLAX24Y24*%
%IPPOS*%
%LPD*%
%AMOC8*
5,1,8,0,0,1.08239X$1,22.5*
%
%ADD10C,0.0600*%
%ADD11R,0.0710X0.0790*%
%ADD12R,0.1261X0.0631*%
%ADD13C,0.1080*%
%ADD14C,0.0966*%
%ADD15C,0.0671*%
%ADD16R,0.0671X0.0867*%
%ADD17C,0.0640*%
%ADD18C,0.0595*%
%ADD19C,0.1346*%
%ADD20OC8,0.1080*%
%ADD21C,0.0740*%
D10*
X011983Y032495D03*
X011983Y033495D03*
X011983Y034495D03*
X011983Y035495D03*
X014983Y035495D03*
X014983Y034495D03*
X014983Y033495D03*
X014983Y032495D03*
D11*
X015923Y032495D03*
X015923Y033995D03*
X017043Y033995D03*
X017043Y032495D03*
X015043Y030995D03*
X013923Y030995D03*
X013043Y030995D03*
X011923Y030995D03*
X010543Y032495D03*
X009423Y032495D03*
X009423Y033995D03*
X010543Y033995D03*
D12*
X010428Y030495D03*
X008538Y030495D03*
X016538Y030495D03*
X018428Y030495D03*
D13*
X013523Y002558D03*
D14*
X014468Y004527D03*
X015531Y004527D03*
X012578Y004527D03*
X011515Y004527D03*
D15*
X011554Y002558D03*
X013523Y004527D03*
X015491Y002558D03*
D16*
X017893Y032495D03*
X017893Y033995D03*
X018074Y035495D03*
X016893Y035495D03*
X019074Y033995D03*
X019074Y032495D03*
X009574Y035495D03*
X008574Y033995D03*
X008393Y035495D03*
X007393Y033995D03*
X007393Y032495D03*
X008574Y032495D03*
D17*
X006131Y038003D03*
X007836Y038987D03*
X019131Y038987D03*
X020836Y038003D03*
D18*
X007999Y003511D02*
X007484Y003511D01*
X007484Y004495D02*
X007999Y004495D01*
X007999Y005480D02*
X007484Y005480D01*
X008983Y005480D02*
X009498Y005480D01*
X009498Y004495D02*
X008983Y004495D01*
X008983Y003511D02*
X009498Y003511D01*
D19*
X010282Y002625D03*
X010282Y006365D03*
D20*
X011983Y029495D03*
X014983Y029495D03*
D21*
X008313Y027995D02*
X007653Y027995D01*
X007653Y026495D02*
X008313Y026495D01*
X008313Y024995D02*
X007653Y024995D01*
M02*
