G75*
%MOIN*%
%OFA0B0*%
%FSLAX24Y24*%
%IPPOS*%
%LPD*%
%AMOC8*
5,1,8,0,0,1.08239X$1,22.5*
%
%ADD10C,0.0000*%
%ADD11C,0.0520*%
%ADD12C,0.1000*%
%ADD13C,0.0886*%
%ADD14C,0.0560*%
%ADD15C,0.0515*%
%ADD16C,0.1266*%
%ADD17OC8,0.1000*%
%ADD18C,0.0660*%
D10*
X005983Y001995D02*
X005983Y034495D01*
X004718Y036919D01*
X004698Y036958D01*
X004681Y036998D01*
X004668Y037040D01*
X004659Y037082D01*
X004653Y037125D01*
X004651Y037169D01*
X004653Y037213D01*
X004659Y037256D01*
X004668Y037298D01*
X004681Y037340D01*
X004698Y037380D01*
X004718Y037419D01*
X004741Y037456D01*
X004768Y037490D01*
X004797Y037523D01*
X004830Y037552D01*
X004864Y037579D01*
X004901Y037602D01*
X007066Y038852D01*
X007105Y038872D01*
X007145Y038889D01*
X007187Y038902D01*
X007229Y038911D01*
X007272Y038917D01*
X007316Y038919D01*
X007360Y038917D01*
X007403Y038911D01*
X007445Y038902D01*
X007487Y038889D01*
X007527Y038872D01*
X007566Y038852D01*
X007603Y038829D01*
X007637Y038802D01*
X007670Y038773D01*
X007699Y038740D01*
X007726Y038706D01*
X007749Y038669D01*
X009983Y034995D01*
X016983Y034995D01*
X019218Y038669D01*
X019241Y038706D01*
X019268Y038740D01*
X019297Y038773D01*
X019330Y038802D01*
X019364Y038829D01*
X019401Y038852D01*
X019440Y038872D01*
X019480Y038889D01*
X019522Y038902D01*
X019564Y038911D01*
X019607Y038917D01*
X019651Y038919D01*
X019695Y038917D01*
X019738Y038911D01*
X019780Y038902D01*
X019822Y038889D01*
X019862Y038872D01*
X019901Y038852D01*
X022066Y037602D01*
X022103Y037579D01*
X022137Y037552D01*
X022170Y037523D01*
X022199Y037490D01*
X022226Y037456D01*
X022249Y037419D01*
X022269Y037380D01*
X022286Y037340D01*
X022299Y037298D01*
X022308Y037256D01*
X022314Y037213D01*
X022316Y037169D01*
X022314Y037125D01*
X022308Y037082D01*
X022299Y037040D01*
X022286Y036998D01*
X022269Y036958D01*
X022249Y036919D01*
X020983Y034495D01*
X020983Y001995D01*
X020981Y001935D01*
X020976Y001874D01*
X020967Y001815D01*
X020954Y001756D01*
X020938Y001697D01*
X020918Y001640D01*
X020895Y001585D01*
X020868Y001530D01*
X020839Y001478D01*
X020806Y001427D01*
X020770Y001378D01*
X020732Y001332D01*
X020690Y001288D01*
X020646Y001246D01*
X020600Y001208D01*
X020551Y001172D01*
X020500Y001139D01*
X020448Y001110D01*
X020393Y001083D01*
X020338Y001060D01*
X020281Y001040D01*
X020222Y001024D01*
X020163Y001011D01*
X020104Y001002D01*
X020043Y000997D01*
X019983Y000995D01*
X006983Y000995D01*
X006923Y000997D01*
X006862Y001002D01*
X006803Y001011D01*
X006744Y001024D01*
X006685Y001040D01*
X006628Y001060D01*
X006573Y001083D01*
X006518Y001110D01*
X006466Y001139D01*
X006415Y001172D01*
X006366Y001208D01*
X006320Y001246D01*
X006276Y001288D01*
X006234Y001332D01*
X006196Y001378D01*
X006160Y001427D01*
X006127Y001478D01*
X006098Y001530D01*
X006071Y001585D01*
X006048Y001640D01*
X006028Y001697D01*
X006012Y001756D01*
X005999Y001815D01*
X005990Y001874D01*
X005985Y001935D01*
X005983Y001995D01*
X011259Y002558D02*
X011261Y002592D01*
X011267Y002626D01*
X011277Y002659D01*
X011290Y002690D01*
X011308Y002720D01*
X011328Y002748D01*
X011352Y002773D01*
X011378Y002795D01*
X011406Y002813D01*
X011437Y002829D01*
X011469Y002841D01*
X011503Y002849D01*
X011537Y002853D01*
X011571Y002853D01*
X011605Y002849D01*
X011639Y002841D01*
X011671Y002829D01*
X011701Y002813D01*
X011730Y002795D01*
X011756Y002773D01*
X011780Y002748D01*
X011800Y002720D01*
X011818Y002690D01*
X011831Y002659D01*
X011841Y002626D01*
X011847Y002592D01*
X011849Y002558D01*
X011847Y002524D01*
X011841Y002490D01*
X011831Y002457D01*
X011818Y002426D01*
X011800Y002396D01*
X011780Y002368D01*
X011756Y002343D01*
X011730Y002321D01*
X011702Y002303D01*
X011671Y002287D01*
X011639Y002275D01*
X011605Y002267D01*
X011571Y002263D01*
X011537Y002263D01*
X011503Y002267D01*
X011469Y002275D01*
X011437Y002287D01*
X011406Y002303D01*
X011378Y002321D01*
X011352Y002343D01*
X011328Y002368D01*
X011308Y002396D01*
X011290Y002426D01*
X011277Y002457D01*
X011267Y002490D01*
X011261Y002524D01*
X011259Y002558D01*
X013228Y004527D02*
X013230Y004561D01*
X013236Y004595D01*
X013246Y004628D01*
X013259Y004659D01*
X013277Y004689D01*
X013297Y004717D01*
X013321Y004742D01*
X013347Y004764D01*
X013375Y004782D01*
X013406Y004798D01*
X013438Y004810D01*
X013472Y004818D01*
X013506Y004822D01*
X013540Y004822D01*
X013574Y004818D01*
X013608Y004810D01*
X013640Y004798D01*
X013670Y004782D01*
X013699Y004764D01*
X013725Y004742D01*
X013749Y004717D01*
X013769Y004689D01*
X013787Y004659D01*
X013800Y004628D01*
X013810Y004595D01*
X013816Y004561D01*
X013818Y004527D01*
X013816Y004493D01*
X013810Y004459D01*
X013800Y004426D01*
X013787Y004395D01*
X013769Y004365D01*
X013749Y004337D01*
X013725Y004312D01*
X013699Y004290D01*
X013671Y004272D01*
X013640Y004256D01*
X013608Y004244D01*
X013574Y004236D01*
X013540Y004232D01*
X013506Y004232D01*
X013472Y004236D01*
X013438Y004244D01*
X013406Y004256D01*
X013375Y004272D01*
X013347Y004290D01*
X013321Y004312D01*
X013297Y004337D01*
X013277Y004365D01*
X013259Y004395D01*
X013246Y004426D01*
X013236Y004459D01*
X013230Y004493D01*
X013228Y004527D01*
X015196Y002558D02*
X015198Y002592D01*
X015204Y002626D01*
X015214Y002659D01*
X015227Y002690D01*
X015245Y002720D01*
X015265Y002748D01*
X015289Y002773D01*
X015315Y002795D01*
X015343Y002813D01*
X015374Y002829D01*
X015406Y002841D01*
X015440Y002849D01*
X015474Y002853D01*
X015508Y002853D01*
X015542Y002849D01*
X015576Y002841D01*
X015608Y002829D01*
X015638Y002813D01*
X015667Y002795D01*
X015693Y002773D01*
X015717Y002748D01*
X015737Y002720D01*
X015755Y002690D01*
X015768Y002659D01*
X015778Y002626D01*
X015784Y002592D01*
X015786Y002558D01*
X015784Y002524D01*
X015778Y002490D01*
X015768Y002457D01*
X015755Y002426D01*
X015737Y002396D01*
X015717Y002368D01*
X015693Y002343D01*
X015667Y002321D01*
X015639Y002303D01*
X015608Y002287D01*
X015576Y002275D01*
X015542Y002267D01*
X015508Y002263D01*
X015474Y002263D01*
X015440Y002267D01*
X015406Y002275D01*
X015374Y002287D01*
X015343Y002303D01*
X015315Y002321D01*
X015289Y002343D01*
X015265Y002368D01*
X015245Y002396D01*
X015227Y002426D01*
X015214Y002457D01*
X015204Y002490D01*
X015198Y002524D01*
X015196Y002558D01*
D11*
X014983Y030495D03*
X014983Y031495D03*
X014983Y032495D03*
X014983Y033495D03*
X011983Y033495D03*
X011983Y032495D03*
X011983Y031495D03*
X011983Y030495D03*
D12*
X013523Y002558D03*
D13*
X014468Y004527D03*
X015531Y004527D03*
X012578Y004527D03*
X011515Y004527D03*
D14*
X006131Y036003D03*
X007836Y036987D03*
X019131Y036987D03*
X020836Y036003D03*
D15*
X009498Y005480D02*
X008983Y005480D01*
X008983Y004495D02*
X009498Y004495D01*
X009498Y003511D02*
X008983Y003511D01*
X007999Y003511D02*
X007484Y003511D01*
X007484Y004495D02*
X007999Y004495D01*
X007999Y005480D02*
X007484Y005480D01*
D16*
X010282Y006365D03*
X010282Y002625D03*
D17*
X007983Y018495D03*
X007983Y020995D03*
D18*
X007653Y022995D02*
X008313Y022995D01*
X008313Y024495D02*
X007653Y024495D01*
X007653Y025995D02*
X008313Y025995D01*
M02*
