G75*
%MOIN*%
%OFA0B0*%
%FSLAX24Y24*%
%IPPOS*%
%LPD*%
%AMOC8*
5,1,8,0,0,1.08239X$1,22.5*
%
%ADD10C,0.0000*%
%ADD11C,0.0040*%
%ADD12C,0.0060*%
%ADD13C,0.0050*%
%ADD14C,0.0030*%
%ADD15R,0.0433X0.0709*%
D10*
X005983Y001995D02*
X005983Y034495D01*
X004718Y036919D01*
X004698Y036958D01*
X004681Y036998D01*
X004668Y037040D01*
X004659Y037082D01*
X004653Y037125D01*
X004651Y037169D01*
X004653Y037213D01*
X004659Y037256D01*
X004668Y037298D01*
X004681Y037340D01*
X004698Y037380D01*
X004718Y037419D01*
X004741Y037456D01*
X004768Y037490D01*
X004797Y037523D01*
X004830Y037552D01*
X004864Y037579D01*
X004901Y037602D01*
X007066Y038852D01*
X007105Y038872D01*
X007145Y038889D01*
X007187Y038902D01*
X007229Y038911D01*
X007272Y038917D01*
X007316Y038919D01*
X007360Y038917D01*
X007403Y038911D01*
X007445Y038902D01*
X007487Y038889D01*
X007527Y038872D01*
X007566Y038852D01*
X007603Y038829D01*
X007637Y038802D01*
X007670Y038773D01*
X007699Y038740D01*
X007726Y038706D01*
X007749Y038669D01*
X009983Y034995D01*
X016983Y034995D01*
X019218Y038669D01*
X019241Y038706D01*
X019268Y038740D01*
X019297Y038773D01*
X019330Y038802D01*
X019364Y038829D01*
X019401Y038852D01*
X019440Y038872D01*
X019480Y038889D01*
X019522Y038902D01*
X019564Y038911D01*
X019607Y038917D01*
X019651Y038919D01*
X019695Y038917D01*
X019738Y038911D01*
X019780Y038902D01*
X019822Y038889D01*
X019862Y038872D01*
X019901Y038852D01*
X022066Y037602D01*
X022103Y037579D01*
X022137Y037552D01*
X022170Y037523D01*
X022199Y037490D01*
X022226Y037456D01*
X022249Y037419D01*
X022269Y037380D01*
X022286Y037340D01*
X022299Y037298D01*
X022308Y037256D01*
X022314Y037213D01*
X022316Y037169D01*
X022314Y037125D01*
X022308Y037082D01*
X022299Y037040D01*
X022286Y036998D01*
X022269Y036958D01*
X022249Y036919D01*
X020983Y034495D01*
X020983Y001995D01*
X020981Y001935D01*
X020976Y001874D01*
X020967Y001815D01*
X020954Y001756D01*
X020938Y001697D01*
X020918Y001640D01*
X020895Y001585D01*
X020868Y001530D01*
X020839Y001478D01*
X020806Y001427D01*
X020770Y001378D01*
X020732Y001332D01*
X020690Y001288D01*
X020646Y001246D01*
X020600Y001208D01*
X020551Y001172D01*
X020500Y001139D01*
X020448Y001110D01*
X020393Y001083D01*
X020338Y001060D01*
X020281Y001040D01*
X020222Y001024D01*
X020163Y001011D01*
X020104Y001002D01*
X020043Y000997D01*
X019983Y000995D01*
X006983Y000995D01*
X006923Y000997D01*
X006862Y001002D01*
X006803Y001011D01*
X006744Y001024D01*
X006685Y001040D01*
X006628Y001060D01*
X006573Y001083D01*
X006518Y001110D01*
X006466Y001139D01*
X006415Y001172D01*
X006366Y001208D01*
X006320Y001246D01*
X006276Y001288D01*
X006234Y001332D01*
X006196Y001378D01*
X006160Y001427D01*
X006127Y001478D01*
X006098Y001530D01*
X006071Y001585D01*
X006048Y001640D01*
X006028Y001697D01*
X006012Y001756D01*
X005999Y001815D01*
X005990Y001874D01*
X005985Y001935D01*
X005983Y001995D01*
X011259Y002558D02*
X011261Y002592D01*
X011267Y002626D01*
X011277Y002659D01*
X011290Y002690D01*
X011308Y002720D01*
X011328Y002748D01*
X011352Y002773D01*
X011378Y002795D01*
X011406Y002813D01*
X011437Y002829D01*
X011469Y002841D01*
X011503Y002849D01*
X011537Y002853D01*
X011571Y002853D01*
X011605Y002849D01*
X011639Y002841D01*
X011671Y002829D01*
X011701Y002813D01*
X011730Y002795D01*
X011756Y002773D01*
X011780Y002748D01*
X011800Y002720D01*
X011818Y002690D01*
X011831Y002659D01*
X011841Y002626D01*
X011847Y002592D01*
X011849Y002558D01*
X011847Y002524D01*
X011841Y002490D01*
X011831Y002457D01*
X011818Y002426D01*
X011800Y002396D01*
X011780Y002368D01*
X011756Y002343D01*
X011730Y002321D01*
X011702Y002303D01*
X011671Y002287D01*
X011639Y002275D01*
X011605Y002267D01*
X011571Y002263D01*
X011537Y002263D01*
X011503Y002267D01*
X011469Y002275D01*
X011437Y002287D01*
X011406Y002303D01*
X011378Y002321D01*
X011352Y002343D01*
X011328Y002368D01*
X011308Y002396D01*
X011290Y002426D01*
X011277Y002457D01*
X011267Y002490D01*
X011261Y002524D01*
X011259Y002558D01*
X013228Y004527D02*
X013230Y004561D01*
X013236Y004595D01*
X013246Y004628D01*
X013259Y004659D01*
X013277Y004689D01*
X013297Y004717D01*
X013321Y004742D01*
X013347Y004764D01*
X013375Y004782D01*
X013406Y004798D01*
X013438Y004810D01*
X013472Y004818D01*
X013506Y004822D01*
X013540Y004822D01*
X013574Y004818D01*
X013608Y004810D01*
X013640Y004798D01*
X013670Y004782D01*
X013699Y004764D01*
X013725Y004742D01*
X013749Y004717D01*
X013769Y004689D01*
X013787Y004659D01*
X013800Y004628D01*
X013810Y004595D01*
X013816Y004561D01*
X013818Y004527D01*
X013816Y004493D01*
X013810Y004459D01*
X013800Y004426D01*
X013787Y004395D01*
X013769Y004365D01*
X013749Y004337D01*
X013725Y004312D01*
X013699Y004290D01*
X013671Y004272D01*
X013640Y004256D01*
X013608Y004244D01*
X013574Y004236D01*
X013540Y004232D01*
X013506Y004232D01*
X013472Y004236D01*
X013438Y004244D01*
X013406Y004256D01*
X013375Y004272D01*
X013347Y004290D01*
X013321Y004312D01*
X013297Y004337D01*
X013277Y004365D01*
X013259Y004395D01*
X013246Y004426D01*
X013236Y004459D01*
X013230Y004493D01*
X013228Y004527D01*
X015196Y002558D02*
X015198Y002592D01*
X015204Y002626D01*
X015214Y002659D01*
X015227Y002690D01*
X015245Y002720D01*
X015265Y002748D01*
X015289Y002773D01*
X015315Y002795D01*
X015343Y002813D01*
X015374Y002829D01*
X015406Y002841D01*
X015440Y002849D01*
X015474Y002853D01*
X015508Y002853D01*
X015542Y002849D01*
X015576Y002841D01*
X015608Y002829D01*
X015638Y002813D01*
X015667Y002795D01*
X015693Y002773D01*
X015717Y002748D01*
X015737Y002720D01*
X015755Y002690D01*
X015768Y002659D01*
X015778Y002626D01*
X015784Y002592D01*
X015786Y002558D01*
X015784Y002524D01*
X015778Y002490D01*
X015768Y002457D01*
X015755Y002426D01*
X015737Y002396D01*
X015717Y002368D01*
X015693Y002343D01*
X015667Y002321D01*
X015639Y002303D01*
X015608Y002287D01*
X015576Y002275D01*
X015542Y002267D01*
X015508Y002263D01*
X015474Y002263D01*
X015440Y002267D01*
X015406Y002275D01*
X015374Y002287D01*
X015343Y002303D01*
X015315Y002321D01*
X015289Y002343D01*
X015265Y002368D01*
X015245Y002396D01*
X015227Y002426D01*
X015214Y002457D01*
X015204Y002490D01*
X015198Y002524D01*
X015196Y002558D01*
D11*
X011424Y019862D02*
X011578Y020015D01*
X011501Y020015D01*
X011501Y020092D01*
X011578Y020092D01*
X011578Y020015D01*
X011731Y020015D02*
X011731Y020476D01*
X011961Y020476D01*
X012038Y020399D01*
X012038Y020246D01*
X011961Y020169D01*
X011731Y020169D01*
X011884Y020169D02*
X012038Y020015D01*
X012191Y020092D02*
X012268Y020015D01*
X012422Y020015D01*
X012498Y020092D01*
X012498Y020169D01*
X012422Y020246D01*
X012191Y020246D01*
X012191Y020092D01*
X012191Y020246D02*
X012345Y020399D01*
X012498Y020476D01*
X012422Y020765D02*
X012422Y021226D01*
X012191Y020996D01*
X012498Y020996D01*
X012038Y020996D02*
X011961Y020919D01*
X011731Y020919D01*
X011884Y020919D02*
X012038Y020765D01*
X012038Y020996D02*
X012038Y021149D01*
X011961Y021226D01*
X011731Y021226D01*
X011731Y020765D01*
X011578Y020765D02*
X011501Y020765D01*
X011501Y020842D01*
X011578Y020842D01*
X011578Y020765D01*
X011424Y020612D01*
X011271Y020476D02*
X010964Y020476D01*
X010964Y020246D01*
X011117Y020322D01*
X011194Y020322D01*
X011271Y020246D01*
X011271Y020092D01*
X011194Y020015D01*
X011040Y020015D01*
X010964Y020092D01*
X010810Y020015D02*
X010657Y020169D01*
X010733Y020169D02*
X010503Y020169D01*
X010503Y020015D02*
X010503Y020476D01*
X010733Y020476D01*
X010810Y020399D01*
X010810Y020246D01*
X010733Y020169D01*
X010810Y020765D02*
X010657Y020919D01*
X010733Y020919D02*
X010503Y020919D01*
X010503Y020765D02*
X010503Y021226D01*
X010733Y021226D01*
X010810Y021149D01*
X010810Y020996D01*
X010733Y020919D01*
X010964Y020842D02*
X011040Y020765D01*
X011194Y020765D01*
X011271Y020842D01*
X011271Y020919D01*
X011194Y020996D01*
X011117Y020996D01*
X011194Y020996D02*
X011271Y021072D01*
X011271Y021149D01*
X011194Y021226D01*
X011040Y021226D01*
X010964Y021149D01*
X010964Y021515D02*
X011271Y021515D01*
X011117Y021515D02*
X011117Y021976D01*
X010964Y021822D01*
X010810Y021746D02*
X010733Y021669D01*
X010503Y021669D01*
X010503Y021515D02*
X010503Y021976D01*
X010733Y021976D01*
X010810Y021899D01*
X010810Y021746D01*
X010657Y021669D02*
X010810Y021515D01*
X011424Y021362D02*
X011578Y021515D01*
X011501Y021515D01*
X011501Y021592D01*
X011578Y021592D01*
X011578Y021515D01*
X011731Y021515D02*
X011731Y021976D01*
X011961Y021976D01*
X012038Y021899D01*
X012038Y021746D01*
X011961Y021669D01*
X011731Y021669D01*
X011884Y021669D02*
X012038Y021515D01*
X012191Y021515D02*
X012498Y021822D01*
X012498Y021899D01*
X012422Y021976D01*
X012268Y021976D01*
X012191Y021899D01*
X012191Y022265D02*
X012498Y022572D01*
X012498Y022649D01*
X012422Y022726D01*
X012268Y022726D01*
X012191Y022649D01*
X012191Y022265D02*
X012498Y022265D01*
X012038Y022265D02*
X011731Y022265D01*
X011731Y022726D01*
X011578Y023015D02*
X011271Y023015D01*
X011424Y023015D02*
X011424Y023476D01*
X011271Y023322D01*
X011117Y023399D02*
X011040Y023476D01*
X010887Y023476D01*
X010810Y023399D01*
X010810Y023092D01*
X010887Y023015D01*
X011040Y023015D01*
X011117Y023092D01*
X011117Y022726D02*
X011117Y022265D01*
X010964Y022265D02*
X011271Y022265D01*
X011424Y022112D02*
X011578Y022265D01*
X011501Y022265D01*
X011501Y022342D01*
X011578Y022342D01*
X011578Y022265D01*
X011117Y022726D02*
X010964Y022572D01*
X010810Y022265D02*
X010503Y022265D01*
X010503Y022726D01*
X010503Y023015D02*
X010657Y023015D01*
X010580Y023015D02*
X010580Y023476D01*
X010503Y023476D02*
X010657Y023476D01*
X010733Y023765D02*
X010810Y023842D01*
X010733Y023765D02*
X010580Y023765D01*
X010503Y023842D01*
X010503Y024149D01*
X010580Y024226D01*
X010733Y024226D01*
X010810Y024149D01*
X010964Y024226D02*
X011271Y024226D01*
X011271Y024149D01*
X010964Y023842D01*
X010964Y023765D01*
X011424Y023612D02*
X011578Y023765D01*
X011501Y023765D01*
X011501Y023842D01*
X011578Y023842D01*
X011578Y023765D01*
X011731Y023842D02*
X011808Y023765D01*
X011961Y023765D01*
X012038Y023842D01*
X012191Y023842D02*
X012268Y023765D01*
X012422Y023765D01*
X012498Y023842D01*
X012498Y023919D01*
X012422Y023996D01*
X012268Y023996D01*
X012191Y024072D01*
X012191Y024149D01*
X012268Y024226D01*
X012422Y024226D01*
X012498Y024149D01*
X012498Y024072D01*
X012422Y023996D01*
X012268Y023996D02*
X012191Y023919D01*
X012191Y023842D01*
X012038Y024149D02*
X011961Y024226D01*
X011808Y024226D01*
X011731Y024149D01*
X011731Y023842D01*
X011961Y024515D02*
X012115Y024515D01*
X012191Y024592D01*
X012345Y024592D02*
X012422Y024515D01*
X012575Y024515D01*
X012652Y024592D01*
X012652Y024669D01*
X012575Y024746D01*
X012345Y024746D01*
X012345Y024592D01*
X012345Y024746D02*
X012498Y024899D01*
X012652Y024976D01*
X012498Y025265D02*
X012191Y025265D01*
X012498Y025572D01*
X012498Y025649D01*
X012422Y025726D01*
X012268Y025726D01*
X012191Y025649D01*
X012038Y025649D02*
X011961Y025726D01*
X011808Y025726D01*
X011731Y025649D01*
X011731Y025342D01*
X011808Y025265D01*
X011961Y025265D01*
X012038Y025342D01*
X012115Y024976D02*
X011961Y024976D01*
X011884Y024899D01*
X011884Y024592D01*
X011961Y024515D01*
X011731Y024746D02*
X011424Y024746D01*
X011271Y024822D02*
X011194Y024746D01*
X011271Y024669D01*
X011271Y024592D01*
X011194Y024515D01*
X011040Y024515D01*
X010964Y024592D01*
X010810Y024592D02*
X010733Y024515D01*
X010580Y024515D01*
X010503Y024592D01*
X010503Y024899D01*
X010580Y024976D01*
X010733Y024976D01*
X010810Y024899D01*
X010964Y024899D02*
X011040Y024976D01*
X011194Y024976D01*
X011271Y024899D01*
X011271Y024822D01*
X011194Y024746D02*
X011117Y024746D01*
X011424Y025112D02*
X011578Y025265D01*
X011501Y025265D01*
X011501Y025342D01*
X011578Y025342D01*
X011578Y025265D01*
X011271Y025265D02*
X010964Y025265D01*
X011117Y025265D02*
X011117Y025726D01*
X010964Y025572D01*
X010810Y025649D02*
X010733Y025726D01*
X010580Y025726D01*
X010503Y025649D01*
X010503Y025342D01*
X010580Y025265D01*
X010733Y025265D01*
X010810Y025342D01*
X012115Y024976D02*
X012191Y024899D01*
X013503Y024822D02*
X013503Y024746D01*
X013580Y024746D01*
X013580Y024822D01*
X013503Y024822D01*
X013503Y024592D02*
X013503Y024515D01*
X013580Y024515D01*
X013580Y024592D01*
X013503Y024592D01*
X013503Y025265D02*
X013503Y025342D01*
X013580Y025342D01*
X013580Y025265D01*
X013503Y025265D01*
X013503Y025496D02*
X013503Y025572D01*
X013580Y025572D01*
X013580Y025496D01*
X013503Y025496D01*
X014194Y025649D02*
X014271Y025726D01*
X014424Y025726D01*
X014501Y025649D01*
X014501Y025572D01*
X014194Y025265D01*
X014501Y025265D01*
X014654Y025265D02*
X014961Y025572D01*
X014961Y025649D01*
X014884Y025726D01*
X014731Y025726D01*
X014654Y025649D01*
X014654Y025265D02*
X014961Y025265D01*
X015115Y025342D02*
X015115Y025649D01*
X015191Y025726D01*
X015345Y025726D01*
X015422Y025649D01*
X015115Y025342D01*
X015191Y025265D01*
X015345Y025265D01*
X015422Y025342D01*
X015422Y025649D01*
X015652Y025496D02*
X015652Y025342D01*
X015652Y025189D01*
X015575Y025112D01*
X015728Y025265D02*
X015805Y025265D01*
X015882Y025342D01*
X015882Y025496D01*
X016035Y025496D02*
X016189Y025496D01*
X016035Y025726D02*
X016342Y025726D01*
X016035Y025726D02*
X016035Y025265D01*
X016112Y024976D02*
X015805Y024976D01*
X015805Y024515D01*
X015652Y024592D02*
X015652Y024746D01*
X015805Y024746D02*
X015959Y024746D01*
X015652Y024592D02*
X015575Y024515D01*
X015498Y024515D01*
X015422Y024592D01*
X015422Y024439D01*
X015345Y024362D01*
X015191Y024515D02*
X014884Y024515D01*
X015191Y024822D01*
X015191Y024899D01*
X015115Y024976D01*
X014961Y024976D01*
X014884Y024899D01*
X014731Y024592D02*
X014731Y024515D01*
X014654Y024515D01*
X014654Y024592D01*
X014731Y024592D01*
X014501Y024515D02*
X014194Y024515D01*
X014501Y024822D01*
X014501Y024899D01*
X014424Y024976D01*
X014271Y024976D01*
X014194Y024899D01*
X014424Y024226D02*
X014194Y023996D01*
X014501Y023996D01*
X014654Y023842D02*
X014654Y023765D01*
X014654Y023842D02*
X014961Y024149D01*
X014961Y024226D01*
X014654Y024226D01*
X014424Y024226D02*
X014424Y023765D01*
X014194Y023476D02*
X014194Y023015D01*
X014501Y023015D01*
X014654Y023015D02*
X014654Y023476D01*
X014808Y023322D01*
X014961Y023476D01*
X014961Y023015D01*
X015115Y023092D02*
X015191Y023015D01*
X015345Y023015D01*
X015422Y023092D01*
X015422Y023169D01*
X015345Y023246D01*
X015268Y023246D01*
X015345Y023246D02*
X015422Y023322D01*
X015422Y023399D01*
X015345Y023476D01*
X015191Y023476D01*
X015115Y023399D01*
X015115Y023612D02*
X015115Y024072D01*
X015345Y024072D01*
X015422Y023996D01*
X015422Y023842D01*
X015345Y023765D01*
X015115Y023765D01*
X015575Y023765D02*
X015575Y024226D01*
X015882Y024226D01*
X015728Y023996D02*
X015575Y023996D01*
X015575Y023476D02*
X015575Y023246D01*
X015728Y023322D01*
X015805Y023322D01*
X015882Y023246D01*
X015882Y023092D01*
X015805Y023015D01*
X015652Y023015D01*
X015575Y023092D01*
X015575Y022726D02*
X015575Y022265D01*
X015422Y022265D02*
X015422Y022496D01*
X015345Y022572D01*
X015268Y022496D01*
X015268Y022265D01*
X015115Y022265D02*
X015115Y022572D01*
X015191Y022572D01*
X015268Y022496D01*
X014961Y022572D02*
X014961Y022649D01*
X014884Y022726D01*
X014731Y022726D01*
X014654Y022649D01*
X014501Y022649D02*
X014501Y022572D01*
X014194Y022265D01*
X014501Y022265D01*
X014654Y022265D02*
X014961Y022572D01*
X014961Y022265D02*
X014654Y022265D01*
X014731Y021976D02*
X014884Y021976D01*
X014961Y021899D01*
X014654Y021592D01*
X014731Y021515D01*
X014884Y021515D01*
X014961Y021592D01*
X014961Y021899D01*
X015115Y021899D02*
X015115Y021592D01*
X015422Y021899D01*
X015422Y021592D01*
X015345Y021515D01*
X015191Y021515D01*
X015115Y021592D01*
X015115Y021899D02*
X015191Y021976D01*
X015345Y021976D01*
X015422Y021899D01*
X015575Y021976D02*
X015575Y021515D01*
X015575Y021669D02*
X015805Y021822D01*
X015575Y021669D02*
X015805Y021515D01*
X015882Y022265D02*
X015882Y022726D01*
X015882Y022496D02*
X015575Y022496D01*
X016112Y023015D02*
X016035Y023092D01*
X016035Y023169D01*
X016112Y023246D01*
X016266Y023246D01*
X016342Y023169D01*
X016342Y023092D01*
X016266Y023015D01*
X016112Y023015D01*
X016112Y023246D02*
X016035Y023322D01*
X016035Y023399D01*
X016112Y023476D01*
X016266Y023476D01*
X016342Y023399D01*
X016342Y023322D01*
X016266Y023246D01*
X016496Y023015D02*
X016496Y023476D01*
X016803Y023015D01*
X016803Y023476D01*
X015882Y023476D02*
X015575Y023476D01*
X015422Y024592D02*
X015422Y024746D01*
X015728Y025265D02*
X015652Y025342D01*
X016204Y027216D02*
X016204Y028121D01*
X016204Y028869D02*
X016204Y029775D01*
X018094Y029775D01*
X018763Y029106D01*
X018763Y028869D01*
X018763Y028121D02*
X018763Y027885D01*
X018094Y027216D01*
X016204Y027216D01*
X016322Y028869D02*
X016344Y028933D01*
X016371Y028996D01*
X016401Y029058D01*
X016434Y029117D01*
X016470Y029175D01*
X016510Y029231D01*
X016553Y029284D01*
X016598Y029335D01*
X016646Y029383D01*
X016697Y029428D01*
X016751Y029471D01*
X016807Y029510D01*
X016864Y029547D01*
X016924Y029580D01*
X016986Y029609D01*
X017049Y029635D01*
X017113Y029658D01*
X017179Y029677D01*
X017246Y029692D01*
X017313Y029703D01*
X017381Y029711D01*
X017449Y029715D01*
X017517Y029715D01*
X017585Y029711D01*
X017653Y029703D01*
X017720Y029692D01*
X017787Y029677D01*
X017853Y029658D01*
X017917Y029635D01*
X017980Y029609D01*
X018042Y029580D01*
X018102Y029547D01*
X018159Y029510D01*
X018215Y029471D01*
X018269Y029428D01*
X018320Y029383D01*
X018368Y029335D01*
X018413Y029284D01*
X018456Y029231D01*
X018496Y029175D01*
X018532Y029117D01*
X018565Y029058D01*
X018595Y028996D01*
X018622Y028933D01*
X018644Y028869D01*
X018644Y028121D02*
X018622Y028057D01*
X018595Y027994D01*
X018565Y027932D01*
X018532Y027873D01*
X018496Y027815D01*
X018456Y027759D01*
X018413Y027706D01*
X018368Y027655D01*
X018320Y027607D01*
X018269Y027562D01*
X018215Y027519D01*
X018159Y027480D01*
X018102Y027443D01*
X018042Y027410D01*
X017980Y027381D01*
X017917Y027355D01*
X017853Y027332D01*
X017787Y027313D01*
X017720Y027298D01*
X017653Y027287D01*
X017585Y027279D01*
X017517Y027275D01*
X017449Y027275D01*
X017381Y027279D01*
X017313Y027287D01*
X017246Y027298D01*
X017179Y027313D01*
X017113Y027332D01*
X017049Y027355D01*
X016986Y027381D01*
X016924Y027410D01*
X016864Y027443D01*
X016807Y027480D01*
X016751Y027519D01*
X016697Y027562D01*
X016646Y027607D01*
X016598Y027655D01*
X016553Y027706D01*
X016510Y027759D01*
X016470Y027815D01*
X016434Y027873D01*
X016401Y027932D01*
X016371Y027994D01*
X016344Y028057D01*
X016322Y028121D01*
X014771Y029515D02*
X014464Y029515D01*
X014771Y029822D01*
X014771Y029899D01*
X014694Y029976D01*
X014540Y029976D01*
X014464Y029899D01*
X014310Y029899D02*
X014310Y029746D01*
X014233Y029669D01*
X014003Y029669D01*
X014003Y029515D02*
X014003Y029976D01*
X014233Y029976D01*
X014310Y029899D01*
X014157Y029669D02*
X014310Y029515D01*
X012771Y029515D02*
X012464Y029515D01*
X012617Y029515D02*
X012617Y029976D01*
X012464Y029822D01*
X012310Y029746D02*
X012233Y029669D01*
X012003Y029669D01*
X012003Y029515D02*
X012003Y029976D01*
X012233Y029976D01*
X012310Y029899D01*
X012310Y029746D01*
X012157Y029669D02*
X012310Y029515D01*
X010763Y029775D02*
X010763Y028869D01*
X010763Y028121D02*
X010763Y027216D01*
X008873Y027216D01*
X008204Y027885D01*
X008204Y028121D01*
X008204Y028869D02*
X008204Y029106D01*
X008873Y029775D01*
X010763Y029775D01*
X010694Y031015D02*
X010540Y031015D01*
X010464Y031092D01*
X010464Y031246D01*
X010694Y031246D01*
X010771Y031169D01*
X010771Y031092D01*
X010694Y031015D01*
X010464Y031246D02*
X010617Y031399D01*
X010771Y031476D01*
X010310Y031399D02*
X010310Y031246D01*
X010233Y031169D01*
X010003Y031169D01*
X010003Y031015D02*
X010003Y031476D01*
X010233Y031476D01*
X010310Y031399D01*
X010157Y031169D02*
X010310Y031015D01*
X010310Y032515D02*
X010157Y032669D01*
X010233Y032669D02*
X010003Y032669D01*
X010003Y032515D02*
X010003Y032976D01*
X010233Y032976D01*
X010310Y032899D01*
X010310Y032746D01*
X010233Y032669D01*
X010464Y032746D02*
X010771Y032746D01*
X010694Y032976D02*
X010694Y032515D01*
X010464Y032746D02*
X010694Y032976D01*
X010644Y028121D02*
X010622Y028057D01*
X010595Y027994D01*
X010565Y027932D01*
X010532Y027873D01*
X010496Y027815D01*
X010456Y027759D01*
X010413Y027706D01*
X010368Y027655D01*
X010320Y027607D01*
X010269Y027562D01*
X010215Y027519D01*
X010159Y027480D01*
X010102Y027443D01*
X010042Y027410D01*
X009980Y027381D01*
X009917Y027355D01*
X009853Y027332D01*
X009787Y027313D01*
X009720Y027298D01*
X009653Y027287D01*
X009585Y027279D01*
X009517Y027275D01*
X009449Y027275D01*
X009381Y027279D01*
X009313Y027287D01*
X009246Y027298D01*
X009179Y027313D01*
X009113Y027332D01*
X009049Y027355D01*
X008986Y027381D01*
X008924Y027410D01*
X008864Y027443D01*
X008807Y027480D01*
X008751Y027519D01*
X008697Y027562D01*
X008646Y027607D01*
X008598Y027655D01*
X008553Y027706D01*
X008510Y027759D01*
X008470Y027815D01*
X008434Y027873D01*
X008401Y027932D01*
X008371Y027994D01*
X008344Y028057D01*
X008322Y028121D01*
X008322Y028869D02*
X008344Y028933D01*
X008371Y028996D01*
X008401Y029058D01*
X008434Y029117D01*
X008470Y029175D01*
X008510Y029231D01*
X008553Y029284D01*
X008598Y029335D01*
X008646Y029383D01*
X008697Y029428D01*
X008751Y029471D01*
X008807Y029510D01*
X008864Y029547D01*
X008924Y029580D01*
X008986Y029609D01*
X009049Y029635D01*
X009113Y029658D01*
X009179Y029677D01*
X009246Y029692D01*
X009313Y029703D01*
X009381Y029711D01*
X009449Y029715D01*
X009517Y029715D01*
X009585Y029711D01*
X009653Y029703D01*
X009720Y029692D01*
X009787Y029677D01*
X009853Y029658D01*
X009917Y029635D01*
X009980Y029609D01*
X010042Y029580D01*
X010102Y029547D01*
X010159Y029510D01*
X010215Y029471D01*
X010269Y029428D01*
X010320Y029383D01*
X010368Y029335D01*
X010413Y029284D01*
X010456Y029231D01*
X010496Y029175D01*
X010532Y029117D01*
X010565Y029058D01*
X010595Y028996D01*
X010622Y028933D01*
X010644Y028869D01*
X013503Y024072D02*
X013503Y023996D01*
X013580Y023996D01*
X013580Y024072D01*
X013503Y024072D01*
X013503Y023842D02*
X013503Y023765D01*
X013580Y023765D01*
X013580Y023842D01*
X013503Y023842D01*
X013503Y023322D02*
X013503Y023246D01*
X013580Y023246D01*
X013580Y023322D01*
X013503Y023322D01*
X013503Y023092D02*
X013503Y023015D01*
X013580Y023015D01*
X013580Y023092D01*
X013503Y023092D01*
X013503Y022572D02*
X013503Y022496D01*
X013580Y022496D01*
X013580Y022572D01*
X013503Y022572D01*
X013503Y022342D02*
X013503Y022265D01*
X013580Y022265D01*
X013580Y022342D01*
X013503Y022342D01*
X013503Y021822D02*
X013503Y021746D01*
X013580Y021746D01*
X013580Y021822D01*
X013503Y021822D01*
X013503Y021592D02*
X013503Y021515D01*
X013580Y021515D01*
X013580Y021592D01*
X013503Y021592D01*
X013503Y021072D02*
X013503Y020996D01*
X013580Y020996D01*
X013580Y021072D01*
X013503Y021072D01*
X013503Y020842D02*
X013503Y020765D01*
X013580Y020765D01*
X013580Y020842D01*
X013503Y020842D01*
X013503Y020322D02*
X013503Y020246D01*
X013580Y020246D01*
X013580Y020322D01*
X013503Y020322D01*
X013503Y020092D02*
X013503Y020015D01*
X013580Y020015D01*
X013580Y020092D01*
X013503Y020092D01*
X014194Y020092D02*
X014271Y020015D01*
X014424Y020015D01*
X014501Y020092D01*
X014501Y020169D01*
X014424Y020246D01*
X014347Y020246D01*
X014424Y020246D02*
X014501Y020322D01*
X014501Y020399D01*
X014424Y020476D01*
X014271Y020476D01*
X014194Y020399D01*
X014194Y020765D02*
X014501Y020765D01*
X014654Y020765D02*
X014654Y021226D01*
X014884Y021072D02*
X014654Y020919D01*
X014884Y020765D01*
X014884Y020476D02*
X014731Y020476D01*
X014654Y020399D01*
X014654Y020322D01*
X014731Y020246D01*
X014961Y020246D01*
X014961Y020399D02*
X014961Y020092D01*
X014884Y020015D01*
X014731Y020015D01*
X014654Y020092D01*
X014961Y020399D02*
X014884Y020476D01*
X015115Y020399D02*
X015115Y020092D01*
X015422Y020399D01*
X015422Y020092D01*
X015345Y020015D01*
X015191Y020015D01*
X015115Y020092D01*
X015115Y020399D02*
X015191Y020476D01*
X015345Y020476D01*
X015422Y020399D01*
X015575Y020476D02*
X015575Y020015D01*
X015575Y020169D02*
X015805Y020322D01*
X015575Y020169D02*
X015805Y020015D01*
X014654Y021592D02*
X014654Y021899D01*
X014731Y021976D01*
X014501Y021515D02*
X014194Y021515D01*
X014347Y021515D02*
X014347Y021976D01*
X014194Y021822D01*
X014347Y021226D02*
X014347Y020765D01*
X014194Y021072D02*
X014347Y021226D01*
X014194Y022649D02*
X014271Y022726D01*
X014424Y022726D01*
X014501Y022649D01*
X012498Y021515D02*
X012191Y021515D01*
X016503Y031015D02*
X016503Y031476D01*
X016733Y031476D01*
X016810Y031399D01*
X016810Y031246D01*
X016733Y031169D01*
X016503Y031169D01*
X016657Y031169D02*
X016810Y031015D01*
X016964Y031092D02*
X017040Y031015D01*
X017194Y031015D01*
X017271Y031092D01*
X017271Y031246D01*
X017194Y031322D01*
X017117Y031322D01*
X016964Y031246D01*
X016964Y031476D01*
X017271Y031476D01*
X017194Y032515D02*
X017040Y032515D01*
X016964Y032592D01*
X016810Y032515D02*
X016657Y032669D01*
X016733Y032669D02*
X016503Y032669D01*
X016503Y032515D02*
X016503Y032976D01*
X016733Y032976D01*
X016810Y032899D01*
X016810Y032746D01*
X016733Y032669D01*
X016964Y032899D02*
X017040Y032976D01*
X017194Y032976D01*
X017271Y032899D01*
X017271Y032822D01*
X017194Y032746D01*
X017271Y032669D01*
X017271Y032592D01*
X017194Y032515D01*
X017194Y032746D02*
X017117Y032746D01*
X019145Y035771D02*
X019411Y035617D01*
X019544Y035540D02*
X019810Y035387D01*
X019677Y035464D02*
X019907Y035862D01*
X019697Y035806D01*
X019375Y036169D02*
X019145Y035771D01*
X007814Y035748D02*
X007548Y035595D01*
X007661Y036014D01*
X007622Y036081D01*
X007517Y036109D01*
X007384Y036032D01*
X007356Y035927D01*
X007415Y035518D02*
X007150Y035365D01*
X006919Y035763D01*
D12*
X006783Y026695D02*
X009183Y026695D01*
X009183Y022295D01*
X006783Y022295D01*
X006783Y026695D01*
X007383Y025995D02*
X007433Y025995D01*
X007383Y025995D02*
X007383Y025795D01*
X007433Y025795D01*
X007383Y025795D02*
X007383Y025595D01*
X007583Y025595D01*
X007383Y025595D02*
X007383Y025395D01*
X008583Y025395D01*
X008583Y025595D01*
X008383Y025595D01*
X008583Y025595D02*
X008583Y025795D01*
X008533Y025795D01*
X008583Y025795D02*
X008583Y025995D01*
X008533Y025995D01*
X008583Y025395D02*
X008583Y025195D01*
X008583Y024995D01*
X008583Y024795D01*
X008583Y022995D01*
X008533Y022995D01*
X008233Y021595D02*
X007733Y021595D01*
X007383Y021245D01*
X007383Y020745D01*
X007733Y020395D01*
X008233Y020395D01*
X008583Y020745D01*
X008583Y021245D01*
X008233Y021595D01*
X007433Y022995D02*
X007383Y022995D01*
X007383Y024795D01*
X007383Y024995D01*
X007383Y025195D01*
X007383Y025395D01*
X007383Y025195D02*
X008583Y025195D01*
X008583Y024995D02*
X008283Y024995D01*
X008483Y024795D02*
X008583Y024795D01*
X007683Y024995D02*
X007383Y024995D01*
X007383Y024795D02*
X007483Y024795D01*
X007733Y019095D02*
X007383Y018745D01*
X007383Y018245D01*
X007733Y017895D01*
X008233Y017895D01*
X008583Y018245D01*
X008583Y018745D01*
X008233Y019095D01*
X007733Y019095D01*
X012333Y029995D02*
X013083Y029995D01*
X013085Y030034D01*
X013091Y030073D01*
X013100Y030111D01*
X013113Y030148D01*
X013130Y030184D01*
X013150Y030217D01*
X013174Y030249D01*
X013200Y030278D01*
X013229Y030304D01*
X013261Y030328D01*
X013294Y030348D01*
X013330Y030365D01*
X013367Y030378D01*
X013405Y030387D01*
X013444Y030393D01*
X013483Y030395D01*
X013522Y030393D01*
X013561Y030387D01*
X013599Y030378D01*
X013636Y030365D01*
X013672Y030348D01*
X013705Y030328D01*
X013737Y030304D01*
X013766Y030278D01*
X013792Y030249D01*
X013816Y030217D01*
X013836Y030184D01*
X013853Y030148D01*
X013866Y030111D01*
X013875Y030073D01*
X013881Y030034D01*
X013883Y029995D01*
X014633Y029995D01*
X014633Y033995D01*
X012333Y033995D01*
X012333Y029995D01*
X011144Y006028D02*
X011144Y006027D01*
X011144Y006028D02*
X015901Y006028D01*
X015901Y004277D01*
X015901Y003427D02*
X015901Y001412D01*
X014723Y001412D01*
X012323Y001412D01*
X011144Y001412D01*
X011144Y005277D01*
X012323Y001412D02*
X012323Y000330D01*
X014723Y000330D01*
X014523Y000130D01*
X012523Y000130D01*
X012323Y000330D01*
X014723Y000330D02*
X014723Y001412D01*
D13*
X000125Y003314D02*
X000125Y005676D01*
X004062Y005676D01*
X004062Y006267D01*
X004101Y006267D01*
X004259Y002724D01*
X004062Y002724D01*
X004062Y003314D01*
X000125Y003314D01*
X004062Y003314D02*
X004062Y005676D01*
X004101Y006267D02*
X004397Y006267D01*
X004554Y002724D01*
X004259Y002724D01*
X004554Y002724D02*
X004849Y002724D01*
X004692Y006267D01*
X004987Y006267D01*
X005145Y002724D01*
X004849Y002724D01*
X005145Y002724D02*
X005440Y002724D01*
X005282Y006267D01*
X005578Y006267D01*
X005735Y002724D01*
X005440Y002724D01*
X005735Y002724D02*
X006031Y002724D01*
X005873Y006267D01*
X006031Y006267D01*
X006031Y006602D01*
X009633Y006602D01*
X010912Y006602D01*
X011361Y006550D02*
X011361Y007948D01*
X009767Y007948D01*
X009767Y027043D01*
X020200Y027043D01*
X020200Y007948D01*
X019058Y007948D01*
X019058Y006872D01*
X019056Y006840D01*
X019051Y006809D01*
X019042Y006779D01*
X019030Y006750D01*
X019015Y006722D01*
X018996Y006696D01*
X018975Y006673D01*
X018952Y006652D01*
X018926Y006633D01*
X018898Y006618D01*
X018869Y006606D01*
X018839Y006597D01*
X018808Y006592D01*
X018776Y006590D01*
X017483Y006590D01*
X017483Y007948D01*
X015908Y007948D01*
X015908Y006872D01*
X015910Y006840D01*
X015915Y006809D01*
X015924Y006779D01*
X015936Y006750D01*
X015951Y006722D01*
X015970Y006696D01*
X015991Y006673D01*
X016014Y006652D01*
X016040Y006633D01*
X016068Y006618D01*
X016097Y006606D01*
X016127Y006597D01*
X016158Y006592D01*
X016190Y006590D01*
X017483Y006590D01*
X017483Y007948D02*
X019058Y007948D01*
X018074Y008834D02*
X016893Y008834D01*
X015908Y007948D02*
X013605Y007948D01*
X013605Y006550D01*
X011361Y006550D01*
X011361Y007948D02*
X013605Y007948D01*
X013074Y008834D02*
X012483Y008834D01*
X012483Y009424D01*
X012483Y008834D02*
X012483Y008243D01*
X012483Y008834D02*
X011893Y008834D01*
X012549Y005719D02*
X012700Y005719D01*
X012775Y005644D01*
X012775Y005569D01*
X012700Y005494D01*
X012775Y005419D01*
X012775Y005343D01*
X012700Y005268D01*
X012549Y005268D01*
X012474Y005343D01*
X012624Y005494D02*
X012700Y005494D01*
X012549Y005719D02*
X012474Y005644D01*
X013010Y005343D02*
X013010Y005268D01*
X013085Y005268D01*
X013085Y005343D01*
X013010Y005343D01*
X013085Y005268D02*
X012935Y005118D01*
X013242Y005343D02*
X013317Y005268D01*
X013467Y005268D01*
X013542Y005343D01*
X013542Y005494D01*
X013467Y005569D01*
X013392Y005569D01*
X013242Y005494D01*
X013242Y005719D01*
X013542Y005719D01*
X013702Y005569D02*
X013777Y005569D01*
X013852Y005494D01*
X013927Y005569D01*
X014002Y005494D01*
X014002Y005268D01*
X013852Y005268D02*
X013852Y005494D01*
X013702Y005569D02*
X013702Y005268D01*
X014162Y005268D02*
X014162Y005569D01*
X014238Y005569D01*
X014313Y005494D01*
X014388Y005569D01*
X014463Y005494D01*
X014463Y005268D01*
X014313Y005268D02*
X014313Y005494D01*
X010912Y002389D02*
X009633Y002389D01*
X006031Y002389D01*
X006031Y002724D01*
X006031Y006267D01*
X005873Y006267D02*
X005578Y006267D01*
X005282Y006267D02*
X004987Y006267D01*
X004692Y006267D02*
X004397Y006267D01*
X009633Y006602D02*
X009633Y002389D01*
X008529Y017220D02*
X008529Y017671D01*
X008379Y017671D02*
X008679Y017671D01*
X008839Y017446D02*
X009140Y017446D01*
X008219Y017446D02*
X007919Y017446D01*
X007919Y017521D02*
X008069Y017671D01*
X008219Y017521D01*
X008219Y017220D01*
X007919Y017220D02*
X007919Y017521D01*
X007759Y017521D02*
X007759Y017596D01*
X007683Y017671D01*
X007458Y017671D01*
X007458Y017220D01*
X007683Y017220D01*
X007759Y017295D01*
X007759Y017370D01*
X007683Y017446D01*
X007458Y017446D01*
X007683Y017446D02*
X007759Y017521D01*
X007683Y019720D02*
X007458Y019720D01*
X007458Y020171D01*
X007683Y020171D01*
X007759Y020096D01*
X007759Y020021D01*
X007683Y019946D01*
X007458Y019946D01*
X007683Y019946D02*
X007759Y019870D01*
X007759Y019795D01*
X007683Y019720D01*
X007919Y019720D02*
X007919Y020021D01*
X008069Y020171D01*
X008219Y020021D01*
X008219Y019720D01*
X008219Y019946D02*
X007919Y019946D01*
X008379Y020171D02*
X008679Y020171D01*
X008529Y020171D02*
X008529Y019720D01*
X008839Y019946D02*
X009140Y019946D01*
X008990Y020096D02*
X008990Y019795D01*
X007358Y022410D02*
X007058Y022710D01*
X006983Y022710D01*
X006908Y022635D01*
X006908Y022485D01*
X006983Y022410D01*
X007358Y022410D02*
X007358Y022710D01*
X007358Y026110D02*
X007358Y026410D01*
X007358Y026260D02*
X006908Y026260D01*
X007058Y026110D01*
X009408Y026025D02*
X009408Y025875D01*
X009483Y025800D01*
X009558Y025800D01*
X009633Y025875D01*
X009633Y026025D01*
X009708Y026100D01*
X009783Y026100D01*
X009858Y026025D01*
X009858Y025875D01*
X009783Y025800D01*
X009483Y026100D02*
X009408Y026025D01*
X009558Y026260D02*
X009408Y026410D01*
X009858Y026410D01*
X009858Y026260D02*
X009858Y026560D01*
X012858Y032120D02*
X013008Y032120D01*
X012933Y032120D02*
X012933Y032571D01*
X012858Y032571D02*
X013008Y032571D01*
X013165Y032496D02*
X013165Y032195D01*
X013240Y032120D01*
X013390Y032120D01*
X013465Y032195D01*
X013626Y032120D02*
X013926Y032120D01*
X013776Y032120D02*
X013776Y032571D01*
X013626Y032421D01*
X013465Y032496D02*
X013390Y032571D01*
X013240Y032571D01*
X013165Y032496D01*
D14*
X011801Y027774D02*
X011801Y027404D01*
X011678Y027404D02*
X011924Y027404D01*
X011678Y027651D02*
X011801Y027774D01*
X011556Y027713D02*
X011494Y027774D01*
X011371Y027774D01*
X011309Y027713D01*
X011309Y027466D01*
X011371Y027404D01*
X011494Y027404D01*
X011556Y027466D01*
X008422Y030943D02*
X008484Y031005D01*
X008484Y031067D01*
X008422Y031129D01*
X008237Y031129D01*
X008237Y031005D01*
X008298Y030943D01*
X008422Y030943D01*
X008237Y031129D02*
X008360Y031252D01*
X008484Y031314D01*
X008115Y031252D02*
X008054Y031314D01*
X007930Y031314D01*
X007868Y031252D01*
X007868Y031005D01*
X007930Y030943D01*
X008054Y030943D01*
X008115Y031005D01*
X008054Y032443D02*
X008115Y032505D01*
X008054Y032443D02*
X007930Y032443D01*
X007868Y032505D01*
X007868Y032752D01*
X007930Y032814D01*
X008054Y032814D01*
X008115Y032752D01*
X008237Y032752D02*
X008237Y032690D01*
X008298Y032629D01*
X008422Y032629D01*
X008484Y032567D01*
X008484Y032505D01*
X008422Y032443D01*
X008298Y032443D01*
X008237Y032505D01*
X008237Y032567D01*
X008298Y032629D01*
X008422Y032629D02*
X008484Y032690D01*
X008484Y032752D01*
X008422Y032814D01*
X008298Y032814D01*
X008237Y032752D01*
X008930Y033943D02*
X009054Y033943D01*
X009115Y034005D01*
X009237Y034129D02*
X009484Y034129D01*
X009422Y034314D02*
X009422Y033943D01*
X009237Y034129D02*
X009422Y034314D01*
X009115Y034252D02*
X009054Y034314D01*
X008930Y034314D01*
X008868Y034252D01*
X008868Y034005D01*
X008930Y033943D01*
X015309Y027713D02*
X015309Y027466D01*
X015371Y027404D01*
X015494Y027404D01*
X015556Y027466D01*
X015678Y027404D02*
X015924Y027651D01*
X015924Y027713D01*
X015863Y027774D01*
X015739Y027774D01*
X015678Y027713D01*
X015556Y027713D02*
X015494Y027774D01*
X015371Y027774D01*
X015309Y027713D01*
X015678Y027404D02*
X015924Y027404D01*
X018430Y030943D02*
X018554Y030943D01*
X018615Y031005D01*
X018737Y031005D02*
X018798Y030943D01*
X018922Y030943D01*
X018984Y031005D01*
X018984Y031129D01*
X018922Y031190D01*
X018860Y031190D01*
X018737Y031129D01*
X018737Y031314D01*
X018984Y031314D01*
X018615Y031252D02*
X018554Y031314D01*
X018430Y031314D01*
X018368Y031252D01*
X018368Y031005D01*
X018430Y030943D01*
X018430Y032443D02*
X018554Y032443D01*
X018615Y032505D01*
X018737Y032505D02*
X018737Y032443D01*
X018737Y032505D02*
X018984Y032752D01*
X018984Y032814D01*
X018737Y032814D01*
X018615Y032752D02*
X018554Y032814D01*
X018430Y032814D01*
X018368Y032752D01*
X018368Y032505D01*
X018430Y032443D01*
X017922Y033943D02*
X017798Y033943D01*
X017737Y034005D01*
X017615Y034005D02*
X017554Y033943D01*
X017430Y033943D01*
X017368Y034005D01*
X017368Y034252D01*
X017430Y034314D01*
X017554Y034314D01*
X017615Y034252D01*
X017737Y034252D02*
X017798Y034314D01*
X017922Y034314D01*
X017984Y034252D01*
X017984Y034190D01*
X017922Y034129D01*
X017984Y034067D01*
X017984Y034005D01*
X017922Y033943D01*
X017922Y034129D02*
X017860Y034129D01*
D15*
X010282Y006365D03*
X010282Y002625D03*
M02*
