G75*
%MOIN*%
%OFA0B0*%
%FSLAX24Y24*%
%IPPOS*%
%LPD*%
%AMOC8*
5,1,8,0,0,1.08239X$1,22.5*
%
%ADD10C,0.0000*%
%ADD11C,0.0060*%
%ADD12C,0.0050*%
%ADD13C,0.0040*%
%ADD14C,0.0030*%
%ADD15R,0.0433X0.0709*%
D10*
X005983Y001995D02*
X005983Y036495D01*
X004718Y038919D01*
X004698Y038958D01*
X004681Y038998D01*
X004668Y039040D01*
X004659Y039082D01*
X004653Y039125D01*
X004651Y039169D01*
X004653Y039213D01*
X004659Y039256D01*
X004668Y039298D01*
X004681Y039340D01*
X004698Y039380D01*
X004718Y039419D01*
X004741Y039456D01*
X004768Y039490D01*
X004797Y039523D01*
X004830Y039552D01*
X004864Y039579D01*
X004901Y039602D01*
X007066Y040852D01*
X007105Y040872D01*
X007145Y040889D01*
X007187Y040902D01*
X007229Y040911D01*
X007272Y040917D01*
X007316Y040919D01*
X007360Y040917D01*
X007403Y040911D01*
X007445Y040902D01*
X007487Y040889D01*
X007527Y040872D01*
X007566Y040852D01*
X007603Y040829D01*
X007637Y040802D01*
X007670Y040773D01*
X007699Y040740D01*
X007726Y040706D01*
X007749Y040669D01*
X009983Y036995D01*
X016983Y036995D01*
X019218Y040669D01*
X019241Y040706D01*
X019268Y040740D01*
X019297Y040773D01*
X019330Y040802D01*
X019364Y040829D01*
X019401Y040852D01*
X019440Y040872D01*
X019480Y040889D01*
X019522Y040902D01*
X019564Y040911D01*
X019607Y040917D01*
X019651Y040919D01*
X019695Y040917D01*
X019738Y040911D01*
X019780Y040902D01*
X019822Y040889D01*
X019862Y040872D01*
X019901Y040852D01*
X022066Y039602D01*
X022103Y039579D01*
X022137Y039552D01*
X022170Y039523D01*
X022199Y039490D01*
X022226Y039456D01*
X022249Y039419D01*
X022269Y039380D01*
X022286Y039340D01*
X022299Y039298D01*
X022308Y039256D01*
X022314Y039213D01*
X022316Y039169D01*
X022314Y039125D01*
X022308Y039082D01*
X022299Y039040D01*
X022286Y038998D01*
X022269Y038958D01*
X022249Y038919D01*
X020983Y036495D01*
X020983Y001995D01*
X020981Y001935D01*
X020976Y001874D01*
X020967Y001815D01*
X020954Y001756D01*
X020938Y001697D01*
X020918Y001640D01*
X020895Y001585D01*
X020868Y001530D01*
X020839Y001478D01*
X020806Y001427D01*
X020770Y001378D01*
X020732Y001332D01*
X020690Y001288D01*
X020646Y001246D01*
X020600Y001208D01*
X020551Y001172D01*
X020500Y001139D01*
X020448Y001110D01*
X020393Y001083D01*
X020338Y001060D01*
X020281Y001040D01*
X020222Y001024D01*
X020163Y001011D01*
X020104Y001002D01*
X020043Y000997D01*
X019983Y000995D01*
X006983Y000995D01*
X006923Y000997D01*
X006862Y001002D01*
X006803Y001011D01*
X006744Y001024D01*
X006685Y001040D01*
X006628Y001060D01*
X006573Y001083D01*
X006518Y001110D01*
X006466Y001139D01*
X006415Y001172D01*
X006366Y001208D01*
X006320Y001246D01*
X006276Y001288D01*
X006234Y001332D01*
X006196Y001378D01*
X006160Y001427D01*
X006127Y001478D01*
X006098Y001530D01*
X006071Y001585D01*
X006048Y001640D01*
X006028Y001697D01*
X006012Y001756D01*
X005999Y001815D01*
X005990Y001874D01*
X005985Y001935D01*
X005983Y001995D01*
X011259Y002558D02*
X011261Y002592D01*
X011267Y002626D01*
X011277Y002659D01*
X011290Y002690D01*
X011308Y002720D01*
X011328Y002748D01*
X011352Y002773D01*
X011378Y002795D01*
X011406Y002813D01*
X011437Y002829D01*
X011469Y002841D01*
X011503Y002849D01*
X011537Y002853D01*
X011571Y002853D01*
X011605Y002849D01*
X011639Y002841D01*
X011671Y002829D01*
X011701Y002813D01*
X011730Y002795D01*
X011756Y002773D01*
X011780Y002748D01*
X011800Y002720D01*
X011818Y002690D01*
X011831Y002659D01*
X011841Y002626D01*
X011847Y002592D01*
X011849Y002558D01*
X011847Y002524D01*
X011841Y002490D01*
X011831Y002457D01*
X011818Y002426D01*
X011800Y002396D01*
X011780Y002368D01*
X011756Y002343D01*
X011730Y002321D01*
X011702Y002303D01*
X011671Y002287D01*
X011639Y002275D01*
X011605Y002267D01*
X011571Y002263D01*
X011537Y002263D01*
X011503Y002267D01*
X011469Y002275D01*
X011437Y002287D01*
X011406Y002303D01*
X011378Y002321D01*
X011352Y002343D01*
X011328Y002368D01*
X011308Y002396D01*
X011290Y002426D01*
X011277Y002457D01*
X011267Y002490D01*
X011261Y002524D01*
X011259Y002558D01*
X013228Y004527D02*
X013230Y004561D01*
X013236Y004595D01*
X013246Y004628D01*
X013259Y004659D01*
X013277Y004689D01*
X013297Y004717D01*
X013321Y004742D01*
X013347Y004764D01*
X013375Y004782D01*
X013406Y004798D01*
X013438Y004810D01*
X013472Y004818D01*
X013506Y004822D01*
X013540Y004822D01*
X013574Y004818D01*
X013608Y004810D01*
X013640Y004798D01*
X013670Y004782D01*
X013699Y004764D01*
X013725Y004742D01*
X013749Y004717D01*
X013769Y004689D01*
X013787Y004659D01*
X013800Y004628D01*
X013810Y004595D01*
X013816Y004561D01*
X013818Y004527D01*
X013816Y004493D01*
X013810Y004459D01*
X013800Y004426D01*
X013787Y004395D01*
X013769Y004365D01*
X013749Y004337D01*
X013725Y004312D01*
X013699Y004290D01*
X013671Y004272D01*
X013640Y004256D01*
X013608Y004244D01*
X013574Y004236D01*
X013540Y004232D01*
X013506Y004232D01*
X013472Y004236D01*
X013438Y004244D01*
X013406Y004256D01*
X013375Y004272D01*
X013347Y004290D01*
X013321Y004312D01*
X013297Y004337D01*
X013277Y004365D01*
X013259Y004395D01*
X013246Y004426D01*
X013236Y004459D01*
X013230Y004493D01*
X013228Y004527D01*
X015196Y002558D02*
X015198Y002592D01*
X015204Y002626D01*
X015214Y002659D01*
X015227Y002690D01*
X015245Y002720D01*
X015265Y002748D01*
X015289Y002773D01*
X015315Y002795D01*
X015343Y002813D01*
X015374Y002829D01*
X015406Y002841D01*
X015440Y002849D01*
X015474Y002853D01*
X015508Y002853D01*
X015542Y002849D01*
X015576Y002841D01*
X015608Y002829D01*
X015638Y002813D01*
X015667Y002795D01*
X015693Y002773D01*
X015717Y002748D01*
X015737Y002720D01*
X015755Y002690D01*
X015768Y002659D01*
X015778Y002626D01*
X015784Y002592D01*
X015786Y002558D01*
X015784Y002524D01*
X015778Y002490D01*
X015768Y002457D01*
X015755Y002426D01*
X015737Y002396D01*
X015717Y002368D01*
X015693Y002343D01*
X015667Y002321D01*
X015639Y002303D01*
X015608Y002287D01*
X015576Y002275D01*
X015542Y002267D01*
X015508Y002263D01*
X015474Y002263D01*
X015440Y002267D01*
X015406Y002275D01*
X015374Y002287D01*
X015343Y002303D01*
X015315Y002321D01*
X015289Y002343D01*
X015265Y002368D01*
X015245Y002396D01*
X015227Y002426D01*
X015214Y002457D01*
X015204Y002490D01*
X015198Y002524D01*
X015196Y002558D01*
D11*
X015901Y003427D02*
X015901Y001412D01*
X014723Y001412D01*
X012323Y001412D01*
X011144Y001412D01*
X011144Y005277D01*
X011144Y006027D02*
X011144Y006028D01*
X015901Y006028D01*
X015901Y004277D01*
X014723Y001412D02*
X014723Y000330D01*
X012323Y000330D01*
X012523Y000130D01*
X014523Y000130D01*
X014723Y000330D01*
X012323Y000330D02*
X012323Y001412D01*
X009183Y024295D02*
X006783Y024295D01*
X006783Y028695D01*
X009183Y028695D01*
X009183Y024295D01*
X008583Y024995D02*
X008583Y026795D01*
X008483Y026795D01*
X008583Y026795D02*
X008583Y026995D01*
X008283Y026995D01*
X008583Y026995D02*
X008583Y027195D01*
X008583Y027395D01*
X008583Y027595D01*
X008383Y027595D01*
X008583Y027595D02*
X008583Y027795D01*
X008533Y027795D01*
X008583Y027795D02*
X008583Y027995D01*
X008533Y027995D01*
X008583Y027395D02*
X007383Y027395D01*
X007383Y027595D01*
X007383Y027795D01*
X007383Y027995D01*
X007433Y027995D01*
X007433Y027795D02*
X007383Y027795D01*
X007383Y027595D02*
X007583Y027595D01*
X007383Y027395D02*
X007383Y027195D01*
X007383Y026995D01*
X007683Y026995D01*
X007483Y026795D02*
X007383Y026795D01*
X007383Y026995D01*
X007383Y026795D02*
X007383Y024995D01*
X007433Y024995D01*
X008533Y024995D02*
X008583Y024995D01*
X008583Y027195D02*
X007383Y027195D01*
X011383Y029245D02*
X011733Y028895D01*
X012233Y028895D01*
X012583Y029245D01*
X012583Y029745D01*
X012233Y030095D01*
X011733Y030095D01*
X011383Y029745D01*
X011383Y029245D01*
X012333Y031995D02*
X013083Y031995D01*
X013085Y032034D01*
X013091Y032073D01*
X013100Y032111D01*
X013113Y032148D01*
X013130Y032184D01*
X013150Y032217D01*
X013174Y032249D01*
X013200Y032278D01*
X013229Y032304D01*
X013261Y032328D01*
X013294Y032348D01*
X013330Y032365D01*
X013367Y032378D01*
X013405Y032387D01*
X013444Y032393D01*
X013483Y032395D01*
X013522Y032393D01*
X013561Y032387D01*
X013599Y032378D01*
X013636Y032365D01*
X013672Y032348D01*
X013705Y032328D01*
X013737Y032304D01*
X013766Y032278D01*
X013792Y032249D01*
X013816Y032217D01*
X013836Y032184D01*
X013853Y032148D01*
X013866Y032111D01*
X013875Y032073D01*
X013881Y032034D01*
X013883Y031995D01*
X014633Y031995D01*
X014633Y035995D01*
X012333Y035995D01*
X012333Y031995D01*
X014383Y029745D02*
X014383Y029245D01*
X014733Y028895D01*
X015233Y028895D01*
X015583Y029245D01*
X015583Y029745D01*
X015233Y030095D01*
X014733Y030095D01*
X014383Y029745D01*
D12*
X000125Y005676D02*
X000125Y003314D01*
X004062Y003314D01*
X004062Y005676D01*
X000125Y005676D01*
X004062Y005676D02*
X004062Y006267D01*
X004101Y006267D01*
X004259Y002724D01*
X004062Y002724D01*
X004062Y003314D01*
X004259Y002724D02*
X004554Y002724D01*
X004397Y006267D01*
X004692Y006267D01*
X004849Y002724D01*
X004554Y002724D01*
X004849Y002724D02*
X005145Y002724D01*
X004987Y006267D01*
X005282Y006267D01*
X005440Y002724D01*
X005145Y002724D01*
X005440Y002724D02*
X005735Y002724D01*
X005578Y006267D01*
X005873Y006267D01*
X006031Y002724D01*
X005735Y002724D01*
X006031Y002724D02*
X006031Y002389D01*
X009633Y002389D01*
X010912Y002389D01*
X009633Y002389D02*
X009633Y006602D01*
X010912Y006602D01*
X009767Y007448D02*
X020200Y007448D01*
X020200Y026543D01*
X018605Y026543D01*
X018605Y027940D01*
X016361Y027940D01*
X016361Y026543D01*
X018605Y026543D01*
X018074Y025657D02*
X017483Y025657D01*
X017483Y025066D01*
X017483Y025657D02*
X017483Y026247D01*
X017483Y025657D02*
X016893Y025657D01*
X016361Y026543D02*
X014058Y026543D01*
X014058Y027619D01*
X014056Y027651D01*
X014051Y027682D01*
X014042Y027712D01*
X014030Y027741D01*
X014015Y027769D01*
X013996Y027795D01*
X013975Y027818D01*
X013952Y027839D01*
X013926Y027858D01*
X013898Y027873D01*
X013869Y027885D01*
X013839Y027894D01*
X013808Y027899D01*
X013776Y027901D01*
X012483Y027901D01*
X012483Y026543D01*
X014058Y026543D01*
X014458Y028220D02*
X014683Y028220D01*
X014759Y028295D01*
X014759Y028370D01*
X014683Y028446D01*
X014458Y028446D01*
X014458Y028671D02*
X014458Y028220D01*
X014683Y028446D02*
X014759Y028521D01*
X014759Y028596D01*
X014683Y028671D01*
X014458Y028671D01*
X014919Y028521D02*
X014919Y028220D01*
X014919Y028446D02*
X015219Y028446D01*
X015219Y028521D02*
X015219Y028220D01*
X015219Y028521D02*
X015069Y028671D01*
X014919Y028521D01*
X015379Y028671D02*
X015679Y028671D01*
X015529Y028671D02*
X015529Y028220D01*
X015839Y028446D02*
X016140Y028446D01*
X013140Y028446D02*
X012839Y028446D01*
X012990Y028596D02*
X012990Y028295D01*
X012679Y028671D02*
X012379Y028671D01*
X012529Y028671D02*
X012529Y028220D01*
X012219Y028220D02*
X012219Y028521D01*
X012069Y028671D01*
X011919Y028521D01*
X011919Y028220D01*
X011759Y028295D02*
X011683Y028220D01*
X011458Y028220D01*
X011458Y028671D01*
X011683Y028671D01*
X011759Y028596D01*
X011759Y028521D01*
X011683Y028446D01*
X011458Y028446D01*
X011683Y028446D02*
X011759Y028370D01*
X011759Y028295D01*
X011919Y028446D02*
X012219Y028446D01*
X012483Y027901D02*
X011190Y027901D01*
X011158Y027899D01*
X011127Y027894D01*
X011097Y027885D01*
X011068Y027873D01*
X011040Y027858D01*
X011014Y027839D01*
X010991Y027818D01*
X010970Y027795D01*
X010951Y027769D01*
X010936Y027741D01*
X010924Y027712D01*
X010915Y027682D01*
X010910Y027651D01*
X010908Y027619D01*
X010908Y026543D01*
X012483Y026543D01*
X011893Y025657D02*
X013074Y025657D01*
X010908Y026543D02*
X009767Y026543D01*
X009767Y007448D01*
X009633Y006602D02*
X006031Y006602D01*
X006031Y006267D01*
X005873Y006267D01*
X006031Y006267D02*
X006031Y002724D01*
X005578Y006267D02*
X005282Y006267D01*
X004987Y006267D02*
X004692Y006267D01*
X004397Y006267D02*
X004101Y006267D01*
X012474Y005644D02*
X012549Y005719D01*
X012700Y005719D01*
X012775Y005644D01*
X012775Y005569D01*
X012700Y005494D01*
X012775Y005419D01*
X012775Y005343D01*
X012700Y005268D01*
X012549Y005268D01*
X012474Y005343D01*
X012624Y005494D02*
X012700Y005494D01*
X013010Y005343D02*
X013010Y005268D01*
X013085Y005268D01*
X013085Y005343D01*
X013010Y005343D01*
X013085Y005268D02*
X012935Y005118D01*
X013242Y005343D02*
X013317Y005268D01*
X013467Y005268D01*
X013542Y005343D01*
X013542Y005494D01*
X013467Y005569D01*
X013392Y005569D01*
X013242Y005494D01*
X013242Y005719D01*
X013542Y005719D01*
X013702Y005569D02*
X013702Y005268D01*
X013852Y005268D02*
X013852Y005494D01*
X013927Y005569D01*
X014002Y005494D01*
X014002Y005268D01*
X014162Y005268D02*
X014162Y005569D01*
X014238Y005569D01*
X014313Y005494D01*
X014388Y005569D01*
X014463Y005494D01*
X014463Y005268D01*
X014313Y005268D02*
X014313Y005494D01*
X013852Y005494D02*
X013777Y005569D01*
X013702Y005569D01*
X007358Y024410D02*
X007058Y024710D01*
X006983Y024710D01*
X006908Y024635D01*
X006908Y024485D01*
X006983Y024410D01*
X007358Y024410D02*
X007358Y024710D01*
X009483Y027800D02*
X009408Y027875D01*
X009408Y028025D01*
X009483Y028100D01*
X009633Y028025D02*
X009708Y028100D01*
X009783Y028100D01*
X009858Y028025D01*
X009858Y027875D01*
X009783Y027800D01*
X009633Y027875D02*
X009633Y028025D01*
X009633Y027875D02*
X009558Y027800D01*
X009483Y027800D01*
X009558Y028260D02*
X009408Y028410D01*
X009858Y028410D01*
X009858Y028260D02*
X009858Y028560D01*
X007358Y028410D02*
X007358Y028110D01*
X007358Y028260D02*
X006908Y028260D01*
X007058Y028110D01*
X012858Y034120D02*
X013008Y034120D01*
X012933Y034120D02*
X012933Y034571D01*
X012858Y034571D02*
X013008Y034571D01*
X013165Y034496D02*
X013165Y034195D01*
X013240Y034120D01*
X013390Y034120D01*
X013465Y034195D01*
X013626Y034120D02*
X013926Y034120D01*
X013776Y034120D02*
X013776Y034571D01*
X013626Y034421D01*
X013465Y034496D02*
X013390Y034571D01*
X013240Y034571D01*
X013165Y034496D01*
D13*
X012617Y031976D02*
X012617Y031515D01*
X012464Y031515D02*
X012771Y031515D01*
X012464Y031822D02*
X012617Y031976D01*
X012310Y031899D02*
X012310Y031746D01*
X012233Y031669D01*
X012003Y031669D01*
X012003Y031515D02*
X012003Y031976D01*
X012233Y031976D01*
X012310Y031899D01*
X012157Y031669D02*
X012310Y031515D01*
X010763Y031775D02*
X010763Y030869D01*
X010763Y030121D02*
X010763Y029216D01*
X008873Y029216D01*
X008204Y029885D01*
X008204Y030121D01*
X008204Y030869D02*
X008204Y031106D01*
X008873Y031775D01*
X010763Y031775D01*
X010694Y033015D02*
X010540Y033015D01*
X010464Y033092D01*
X010464Y033246D01*
X010694Y033246D01*
X010771Y033169D01*
X010771Y033092D01*
X010694Y033015D01*
X010464Y033246D02*
X010617Y033399D01*
X010771Y033476D01*
X010310Y033399D02*
X010310Y033246D01*
X010233Y033169D01*
X010003Y033169D01*
X010003Y033015D02*
X010003Y033476D01*
X010233Y033476D01*
X010310Y033399D01*
X010157Y033169D02*
X010310Y033015D01*
X010310Y034515D02*
X010157Y034669D01*
X010233Y034669D02*
X010003Y034669D01*
X010003Y034515D02*
X010003Y034976D01*
X010233Y034976D01*
X010310Y034899D01*
X010310Y034746D01*
X010233Y034669D01*
X010464Y034746D02*
X010771Y034746D01*
X010694Y034976D02*
X010694Y034515D01*
X010464Y034746D02*
X010694Y034976D01*
X010644Y030121D02*
X010622Y030057D01*
X010595Y029994D01*
X010565Y029932D01*
X010532Y029873D01*
X010496Y029815D01*
X010456Y029759D01*
X010413Y029706D01*
X010368Y029655D01*
X010320Y029607D01*
X010269Y029562D01*
X010215Y029519D01*
X010159Y029480D01*
X010102Y029443D01*
X010042Y029410D01*
X009980Y029381D01*
X009917Y029355D01*
X009853Y029332D01*
X009787Y029313D01*
X009720Y029298D01*
X009653Y029287D01*
X009585Y029279D01*
X009517Y029275D01*
X009449Y029275D01*
X009381Y029279D01*
X009313Y029287D01*
X009246Y029298D01*
X009179Y029313D01*
X009113Y029332D01*
X009049Y029355D01*
X008986Y029381D01*
X008924Y029410D01*
X008864Y029443D01*
X008807Y029480D01*
X008751Y029519D01*
X008697Y029562D01*
X008646Y029607D01*
X008598Y029655D01*
X008553Y029706D01*
X008510Y029759D01*
X008470Y029815D01*
X008434Y029873D01*
X008401Y029932D01*
X008371Y029994D01*
X008344Y030057D01*
X008322Y030121D01*
X008322Y030869D02*
X008344Y030933D01*
X008371Y030996D01*
X008401Y031058D01*
X008434Y031117D01*
X008470Y031175D01*
X008510Y031231D01*
X008553Y031284D01*
X008598Y031335D01*
X008646Y031383D01*
X008697Y031428D01*
X008751Y031471D01*
X008807Y031510D01*
X008864Y031547D01*
X008924Y031580D01*
X008986Y031609D01*
X009049Y031635D01*
X009113Y031658D01*
X009179Y031677D01*
X009246Y031692D01*
X009313Y031703D01*
X009381Y031711D01*
X009449Y031715D01*
X009517Y031715D01*
X009585Y031711D01*
X009653Y031703D01*
X009720Y031692D01*
X009787Y031677D01*
X009853Y031658D01*
X009917Y031635D01*
X009980Y031609D01*
X010042Y031580D01*
X010102Y031547D01*
X010159Y031510D01*
X010215Y031471D01*
X010269Y031428D01*
X010320Y031383D01*
X010368Y031335D01*
X010413Y031284D01*
X010456Y031231D01*
X010496Y031175D01*
X010532Y031117D01*
X010565Y031058D01*
X010595Y030996D01*
X010622Y030933D01*
X010644Y030869D01*
X014003Y031515D02*
X014003Y031976D01*
X014233Y031976D01*
X014310Y031899D01*
X014310Y031746D01*
X014233Y031669D01*
X014003Y031669D01*
X014157Y031669D02*
X014310Y031515D01*
X014464Y031515D02*
X014771Y031822D01*
X014771Y031899D01*
X014694Y031976D01*
X014540Y031976D01*
X014464Y031899D01*
X014464Y031515D02*
X014771Y031515D01*
X016204Y031775D02*
X016204Y030869D01*
X016204Y030121D02*
X016204Y029216D01*
X018094Y029216D01*
X018763Y029885D01*
X018763Y030121D01*
X018763Y030869D02*
X018763Y031106D01*
X018094Y031775D01*
X016204Y031775D01*
X016503Y033015D02*
X016503Y033476D01*
X016733Y033476D01*
X016810Y033399D01*
X016810Y033246D01*
X016733Y033169D01*
X016503Y033169D01*
X016657Y033169D02*
X016810Y033015D01*
X016964Y033092D02*
X017040Y033015D01*
X017194Y033015D01*
X017271Y033092D01*
X017271Y033246D01*
X017194Y033322D01*
X017117Y033322D01*
X016964Y033246D01*
X016964Y033476D01*
X017271Y033476D01*
X017194Y034515D02*
X017040Y034515D01*
X016964Y034592D01*
X016810Y034515D02*
X016657Y034669D01*
X016733Y034669D02*
X016503Y034669D01*
X016503Y034515D02*
X016503Y034976D01*
X016733Y034976D01*
X016810Y034899D01*
X016810Y034746D01*
X016733Y034669D01*
X016964Y034899D02*
X017040Y034976D01*
X017194Y034976D01*
X017271Y034899D01*
X017271Y034822D01*
X017194Y034746D01*
X017271Y034669D01*
X017271Y034592D01*
X017194Y034515D01*
X017194Y034746D02*
X017117Y034746D01*
X016322Y030121D02*
X016344Y030057D01*
X016371Y029994D01*
X016401Y029932D01*
X016434Y029873D01*
X016470Y029815D01*
X016510Y029759D01*
X016553Y029706D01*
X016598Y029655D01*
X016646Y029607D01*
X016697Y029562D01*
X016751Y029519D01*
X016807Y029480D01*
X016864Y029443D01*
X016924Y029410D01*
X016986Y029381D01*
X017049Y029355D01*
X017113Y029332D01*
X017179Y029313D01*
X017246Y029298D01*
X017313Y029287D01*
X017381Y029279D01*
X017449Y029275D01*
X017517Y029275D01*
X017585Y029279D01*
X017653Y029287D01*
X017720Y029298D01*
X017787Y029313D01*
X017853Y029332D01*
X017917Y029355D01*
X017980Y029381D01*
X018042Y029410D01*
X018102Y029443D01*
X018159Y029480D01*
X018215Y029519D01*
X018269Y029562D01*
X018320Y029607D01*
X018368Y029655D01*
X018413Y029706D01*
X018456Y029759D01*
X018496Y029815D01*
X018532Y029873D01*
X018565Y029932D01*
X018595Y029994D01*
X018622Y030057D01*
X018644Y030121D01*
X018644Y030869D02*
X018622Y030933D01*
X018595Y030996D01*
X018565Y031058D01*
X018532Y031117D01*
X018496Y031175D01*
X018456Y031231D01*
X018413Y031284D01*
X018368Y031335D01*
X018320Y031383D01*
X018269Y031428D01*
X018215Y031471D01*
X018159Y031510D01*
X018102Y031547D01*
X018042Y031580D01*
X017980Y031609D01*
X017917Y031635D01*
X017853Y031658D01*
X017787Y031677D01*
X017720Y031692D01*
X017653Y031703D01*
X017585Y031711D01*
X017517Y031715D01*
X017449Y031715D01*
X017381Y031711D01*
X017313Y031703D01*
X017246Y031692D01*
X017179Y031677D01*
X017113Y031658D01*
X017049Y031635D01*
X016986Y031609D01*
X016924Y031580D01*
X016864Y031547D01*
X016807Y031510D01*
X016751Y031471D01*
X016697Y031428D01*
X016646Y031383D01*
X016598Y031335D01*
X016553Y031284D01*
X016510Y031231D01*
X016470Y031175D01*
X016434Y031117D01*
X016401Y031058D01*
X016371Y030996D01*
X016344Y030933D01*
X016322Y030869D01*
D14*
X018368Y033005D02*
X018430Y032943D01*
X018554Y032943D01*
X018615Y033005D01*
X018737Y033005D02*
X018798Y032943D01*
X018922Y032943D01*
X018984Y033005D01*
X018984Y033129D01*
X018922Y033190D01*
X018860Y033190D01*
X018737Y033129D01*
X018737Y033314D01*
X018984Y033314D01*
X018615Y033252D02*
X018554Y033314D01*
X018430Y033314D01*
X018368Y033252D01*
X018368Y033005D01*
X018430Y034443D02*
X018368Y034505D01*
X018368Y034752D01*
X018430Y034814D01*
X018554Y034814D01*
X018615Y034752D01*
X018737Y034814D02*
X018984Y034814D01*
X018984Y034752D01*
X018737Y034505D01*
X018737Y034443D01*
X018615Y034505D02*
X018554Y034443D01*
X018430Y034443D01*
X017922Y035943D02*
X017798Y035943D01*
X017737Y036005D01*
X017615Y036005D02*
X017554Y035943D01*
X017430Y035943D01*
X017368Y036005D01*
X017368Y036252D01*
X017430Y036314D01*
X017554Y036314D01*
X017615Y036252D01*
X017737Y036252D02*
X017798Y036314D01*
X017922Y036314D01*
X017984Y036252D01*
X017984Y036190D01*
X017922Y036129D01*
X017984Y036067D01*
X017984Y036005D01*
X017922Y035943D01*
X017922Y036129D02*
X017860Y036129D01*
X019371Y030774D02*
X019309Y030713D01*
X019309Y030466D01*
X019371Y030404D01*
X019494Y030404D01*
X019556Y030466D01*
X019678Y030404D02*
X019924Y030651D01*
X019924Y030713D01*
X019863Y030774D01*
X019739Y030774D01*
X019678Y030713D01*
X019556Y030713D02*
X019494Y030774D01*
X019371Y030774D01*
X019678Y030404D02*
X019924Y030404D01*
X012066Y030217D02*
X011819Y030217D01*
X011942Y030217D02*
X011942Y030587D01*
X011819Y030464D01*
X011697Y030525D02*
X011636Y030587D01*
X011512Y030587D01*
X011451Y030525D01*
X011451Y030278D01*
X011512Y030217D01*
X011636Y030217D01*
X011697Y030278D01*
X009422Y035943D02*
X009422Y036314D01*
X009237Y036129D01*
X009484Y036129D01*
X009115Y036252D02*
X009054Y036314D01*
X008930Y036314D01*
X008868Y036252D01*
X008868Y036005D01*
X008930Y035943D01*
X009054Y035943D01*
X009115Y036005D01*
X008422Y034814D02*
X008484Y034752D01*
X008484Y034690D01*
X008422Y034629D01*
X008298Y034629D01*
X008237Y034690D01*
X008237Y034752D01*
X008298Y034814D01*
X008422Y034814D01*
X008422Y034629D02*
X008484Y034567D01*
X008484Y034505D01*
X008422Y034443D01*
X008298Y034443D01*
X008237Y034505D01*
X008237Y034567D01*
X008298Y034629D01*
X008115Y034752D02*
X008054Y034814D01*
X007930Y034814D01*
X007868Y034752D01*
X007868Y034505D01*
X007930Y034443D01*
X008054Y034443D01*
X008115Y034505D01*
X008054Y033314D02*
X007930Y033314D01*
X007868Y033252D01*
X007868Y033005D01*
X007930Y032943D01*
X008054Y032943D01*
X008115Y033005D01*
X008237Y033005D02*
X008298Y032943D01*
X008422Y032943D01*
X008484Y033005D01*
X008484Y033067D01*
X008422Y033129D01*
X008237Y033129D01*
X008237Y033005D01*
X008237Y033129D02*
X008360Y033252D01*
X008484Y033314D01*
X008115Y033252D02*
X008054Y033314D01*
D15*
X010282Y006365D03*
X010282Y002625D03*
M02*
