%
M48
M72
T01C0.0315
T02C0.0320
T03C0.0354
T04C0.0440
T05C0.0550
T06C0.0591
T07C0.0866
%
T01
X7999Y3511
X7999Y4495
X7999Y5480
X8983Y5480
X8983Y4495
X8983Y3511
T02
X14983Y30495
X14983Y31495
X14983Y32495
X14983Y33495
X11983Y33495
X11983Y32495
X11983Y31495
X11983Y30495
T03
X6131Y36003
X7836Y36987
X19131Y36987
X20836Y36003
T04
X7983Y22995
X7983Y24495
X7983Y25995
T05
X7983Y20995
X7983Y18495
T06
X11554Y2558
X11515Y4527
X12578Y4527
X13523Y4527
X14468Y4527
X15531Y4527
X15491Y2558
X13523Y2558
T07
X10282Y2625
X10282Y6365
M30
